<?xml version="1.0" encoding="UTF-8"?><svg id="Layer_1" xmlns="http://www.w3.org/2000/svg" viewBox="0 0 1856.42 711.13"><defs><style>.cls-1{fill:none;}.cls-2{fill:#004280;stroke:#231f20;stroke-miterlimit:10;stroke-width:6.29px;}</style></defs><g id="VSLCpS.tif"><g><path class="cls-1" d="M1856.42,711.13c-618.8,0-1237.61,0-1856.42,0C0,474.08,0,237.04,0,0c618.81,0,1237.61,0,1856.42,0V711.13ZM620.17,81.83V666.37h159.07V313.13c45.55,58.15,84.28,107.68,123.1,157.13,26.42,33.66,26.24,33.43,52.62-.15,38.4-48.88,77.18-97.47,121.57-153.45,4.99,111.09-.17,213.03,2.77,323.01,.2,11.91,12.04,33.23,19.78,33.83,43.09,3.32,86.58,1.59,131.24,1.59V246.24c-60.46,0-117.7-.36-174.93,.11-45.55,.37-96.25-14.48-121.24,43.23-9.37-7.23-15.5-10.1-18.89-14.87-40.64-57.3-80.19-115.37-121.85-171.92-7.42-10.07-22.88-19.37-35.12-20.02-44.69-2.37-89.6-.94-138.13-.94Zm381.59,118.04c187.45,.09,368.52-.49,555.15,.07,55.08,.17,88.29,44.9,61.92,87.67-34.91,56.62-93.42,83.46-159.36,109.22V248.63h-157.14v424.4h157.45c0-34.33,.64-66.12-.23-97.87-.55-20.34,3.93-31.43,26.76-40.24,89.07-34.38,178.19-71.75,242.57-145.1,26.87-30.61,53.87-68.5,61.55-106.86,26.63-132.95-45.1-194.35-180.55-199.7-153.09-6.05-306.67,.89-459.92-2.74-47.42-1.12-80.08,10.95-103.77,50.37-12.63,21.02-26.53,41.29-44.43,68.98ZM128.23,83.47V669.44c119.46-.17,237.24,.78,356.49-.35,97.28-.97,77.2,15.49,82.24-83.04,1.43-28.02-10.34-36.32-37.48-35.52-53.56,1.58-107.19,.33-160.8,.31-90.16-.03-89.4,.02-85.46-89.74,.96-21.84,9.68-27.16,29.44-26.93,59.83,.7,119.68,.69,179.51,.16,78.97-.7,66.28,9.41,66.72-66.72,.32-55.61-.15-55.16-56.66-54.81-73.16,.46-146.32,.11-221.33,.11v-114.1h267.66V83.47H128.23Z"/><path class="cls-2" d="M620.17,81.83c48.54,0,93.44-1.44,138.13,.94,12.24,.65,27.7,9.95,35.12,20.02,41.66,56.55,81.21,114.62,121.85,171.92,3.38,4.77,9.52,7.63,18.89,14.87,24.98-57.71,75.69-42.85,121.24-43.23,57.23-.47,114.47-.11,174.93-.11v428.86c-44.66,0-88.15,1.73-131.24-1.59-7.74-.6-19.59-21.92-19.79-33.83-2.94-110.04,2.23-211.85-2.77-323.01-44.38,55.98-83.17,104.57-121.57,153.45-26.38,33.58-26.2,33.81-52.62,.15-38.82-49.45-77.55-98.98-123.1-157.13v353.23h-159.07V81.83Z"/><path class="cls-2" d="M1001.75,199.87c17.9-27.69,31.8-47.96,44.43-68.98,23.69-39.42,56.35-51.49,103.77-50.37,153.25,3.63,306.83-3.31,459.92,2.74,135.45,5.35,207.19,66.74,180.55,199.7-7.68,38.36-34.68,76.25-61.55,106.86-64.38,73.35-153.5,110.72-242.57,145.1-22.83,8.81-27.31,19.9-26.76,40.24,.86,31.75,.23,63.54,.23,97.87h-157.45V248.63h157.14v148.2c65.94-25.77,124.45-52.6,159.36-109.22,26.37-42.76-6.84-87.49-61.92-87.67-186.68-.56-367.65,.02-555.15-.07Z"/><path class="cls-2" d="M128.23,83.47h420.34v115.34H280.9v114.1c75.01,0,259.74-2.77,267.84,.18,13.5,4.92,4.4,119.79,4.4,119.79,0,0-26.4,1.36-60.97,1.44-88.45,.2-199.81,.73-203.75,4.83s-.02,84.63,1.07,99.09-11.74,11.39,79.2,12.58,190.05,6.47,190.05,6.47l1.89,106.63s1.78,4.8-75.91,5.15c-77.69,.35-237.01,.18-356.49,.35V83.47Z"/></g></g></svg>